<?xml version="1.0" encoding="utf-8"?>
<!-- Generator: Adobe Illustrator 24.2.1, SVG Export Plug-In . SVG Version: 6.00 Build 0)  -->
<!DOCTYPE svg PUBLIC "-//W3C//DTD SVG 1.1//EN" "http://www.w3.org/Graphics/SVG/1.1/DTD/svg11.dtd" [
	<!ENTITY ns_extend "http://ns.adobe.com/Extensibility/1.0/">
	<!ENTITY ns_ai "http://ns.adobe.com/AdobeIllustrator/10.0/">
	<!ENTITY ns_graphs "http://ns.adobe.com/Graphs/1.0/">
	<!ENTITY ns_vars "http://ns.adobe.com/Variables/1.0/">
	<!ENTITY ns_imrep "http://ns.adobe.com/ImageReplacement/1.0/">
	<!ENTITY ns_sfw "http://ns.adobe.com/SaveForWeb/1.0/">
	<!ENTITY ns_custom "http://ns.adobe.com/GenericCustomNamespace/1.0/">
	<!ENTITY ns_adobe_xpath "http://ns.adobe.com/XPath/1.0/">
]>
<svg version="1.1" id="Layer_2" xmlns:x="&ns_extend;" xmlns:i="&ns_ai;" xmlns:graph="&ns_graphs;"
	 xmlns="http://www.w3.org/2000/svg" xmlns:xlink="http://www.w3.org/1999/xlink" x="0px" y="0px"
	 viewBox="0 0 299.01117 184.97168" style="enable-background:new 0 0 299.01117 184.97168;" xml:space="preserve">
<metadata>
	<sfw  xmlns="&ns_sfw;">
		<slices></slices>
		<sliceSourceBounds  bottomLeftOrigin="true" height="177.98584" width="299.26349" x="42.80724" y="-173.06967">
			</sliceSourceBounds>
	</sfw>
</metadata>
<path d="M113.61375,18.40394c-0.32616,0.10872-9.67612,3.15289-17.17783,10.00228
	c-7.50172,6.84939-7.61044,12.61158-7.61044,12.61158s17.60049-1.67142,34.00021-12.05791s38.37532-24.6164,65.6528-13.04413
	c5.70845,2.42177,17.6138,29.99386,19.42711,45.30626c0,0,1.81584-18.34339-3.00098-32.79383S193.66539,8.57707,192.35172,8.13918
	s-18.86623-8.05227-34.73946-4.52489c-15.76411,3.50314-26.1626,10.32658-32.55486,15.52706
	c-6.39227,5.20049-17.33497,8.99251-17.33497,8.99251L113.61375,18.40394z"/>
<path d="M116.71466,12.69495c0,0-22.26521,0.97512-41.60505,21.29008c0,0-3.1284,55.69672-3.84719,64.32216
	c-0.71878,8.62544-1.19798,22.04279-0.71878,23.24078c0.47919,1.19798-1.91677,5.5107,29.70985,6.46908l-6.72079,6.94827
	c0,0-16.90582-1.2933-23.64755-3.84424s-7.83499-3.73528-7.74389-5.46627c0.0911-1.73099,4.48246-51.56512,4.48246-66.06448
	s0.96662-26.23693,1.2428-27.06547C68.1427,31.69632,80.589,17.3245,91.28196,14.35423S112.89021,11.77824,116.71466,12.69495z"/>
<path d="M58.05925,81.17613c0,0-26.57833,13.28916-47.57136,38.51932s-6.93348,45.45279,5.97049,54.50484
	c12.90397,9.05203,32.35623,8.66684,52.77146-1.54077c20.41525-10.20763,32.12479-26.6947,41.84499-37.6942
	s37.02932-41.54869,76.83584-51.50032s64.79956-6.51295,111.10049,19.61635c0,0-27.55728-33.37833-73.21602-35.34214
	c-45.65874-1.96382-87.15863,30.58515-118.73995,61.8845s-50.91232,53.40883-79.69477,42.058
	c-13.6741-5.39261-18.10373-23.30374-9.82224-41.79265S55.79728,83.54225,58.05925,81.17613z"/>
<g>
	<path d="M158.6543,132.43758c-0.13672,3.09961-0.28418,5.92773-0.44238,8.48242c-0.15918,2.55566-0.30664,4.5957-0.44238,6.12012
		l-1.38379,15.18066h-8.88867l-3.69629-38.25391h7.50586l0.56738,12.06446c0.18066,3.9043,0.30176,7.11328,0.3623,9.62598
		c0.06055,2.51367,0.09082,4.89355,0.09082,7.13867v2.83984h0.38574c0.19629-4.05469,0.39648-7.74121,0.60059-11.05859
		c0.2041-3.31836,0.4043-6.16602,0.60059-8.5459l1.06641-12.06446h7.57324l1.06641,12.06446
		c0.21094,2.37988,0.41895,5.22754,0.62305,8.5459c0.2041,3.31738,0.39746,7.00391,0.5791,11.05859h0.38477v-2.83984
		c0-2.24512,0.03418-4.625,0.10254-7.13867c0.06738-2.5127,0.18457-5.72168,0.35156-9.62598l0.56641-12.06446h7.5293
		l-3.71973,38.25391h-8.86621l-1.40625-15.20605c-0.13574-1.57422-0.2832-3.63574-0.44141-6.18262
		c-0.15918-2.54688-0.30664-5.35352-0.44238-8.41992L158.6543,132.43758z"/>
	<path d="M176.52246,162.22078v-38.25391h16.30469v8.6963h-8.77637v6.13281h8.77637v8.5459h-8.77637v6.2832h8.77637v8.5957
		H176.52246z"/>
	<path d="M196.41016,150.48347c1.02832,1.40723,2.01855,2.42969,2.9707,3.06641s1.97266,0.95508,3.06152,0.95508
		c1.10352,0,1.97656-0.30176,2.61914-0.90527c0.64258-0.60254,0.96387-1.41504,0.96387-2.4375
		c0-1.30762-1.09668-2.79883-3.28809-4.47363c-0.72559-0.57031-1.28516-1.02246-1.67871-1.35742
		c-2.01074-1.625-3.38965-3.21289-4.1377-4.7627c-0.74902-1.5498-1.12305-3.48145-1.12305-5.79395
		c0-3.65234,0.78613-6.48438,2.3584-8.49512c1.57227-2.01074,3.79492-3.01563,6.66699-3.01563
		c1.61719,0,3.03906,0.28516,4.26367,0.85449s2.27441,1.44922,3.15137,2.63867v8.84766
		c-0.87695-1.25684-1.78418-2.17871-2.7207-2.76465c-0.9375-0.58691-1.98047-0.87988-3.12988-0.87988
		c-1.02832,0-1.8252,0.23047-2.3916,0.69043c-0.56738,0.46191-0.85059,1.11914-0.85059,1.97363
		c0,1.44141,1.11133,2.96582,3.33301,4.57422c0.58984,0.41895,1.04297,0.74609,1.36035,0.98047
		c1.93555,1.52441,3.27734,3.0498,4.02539,4.57422s1.12305,3.45215,1.12305,5.78027c0,4.00488-0.79395,7.0752-2.38184,9.21191
		c-1.58691,2.13672-3.8623,3.2041-6.8252,3.2041c-1.52736,0-2.8877-0.26758-4.08203-0.80371s-2.29004-1.36523-3.28809-2.48828
		V150.48347z"/>
	<path d="M219.85742,162.22078v-29.18066h-5.39648v-9.07325h18.39063v9.07325h-5.375v29.18066H219.85742z"/>
	<path d="M235.27734,162.22078v-38.25391h16.30469v8.6963h-8.77637v6.13281h8.77637v8.5459h-8.77637v6.2832h8.77637v8.5957
		H235.27734z"/>
	<path d="M255.57324,162.22078v-38.25391h9.34277c3.50684,0,6.00195,0.83887,7.4834,2.51367
		c1.48145,1.67579,2.22266,4.48243,2.22266,8.41993c0,2.84863-0.39355,5.13184-1.17969,6.84863
		c-0.78613,1.71777-1.95801,2.86133-3.51465,3.43066l5.30664,17.04102h-7.86914l-2.3584-8.64648
		c-0.30273-1.10547-0.60059-2.35352-0.89551-3.74414s-0.57129-2.87402-0.82813-4.44922l-0.4082,0.02539
		c0.0459,1.54199,0.08008,3.0332,0.10254,4.47363c0.02246,1.44141,0.03418,2.94922,0.03418,4.52441v7.81641H255.57324z
		 M263.01172,140.0782h0.56641c1.31543,0,2.29395-0.36426,2.93652-1.09375c0.64258-0.72852,0.96387-1.85547,0.96387-3.37988
		c0-1.32422-0.2832-2.2793-0.85059-2.86523c-0.56641-0.58691-1.47754-0.87988-2.73242-0.87988
		c-0.22656,0-0.4043,0.00391-0.53223,0.0127c-0.12891,0.00781-0.24609,0.02051-0.35156,0.03711V140.0782z"/>
	<path d="M277.90918,162.22078v-38.25391h9.43359l2.74414,12.31544c0.75586,3.46875,1.30762,6.18359,1.65527,8.14355
		c0.34766,1.96094,0.6123,3.8125,0.79395,5.55469h0.43066c-0.4541-3.80371-0.78613-7.12109-0.99805-9.95313
		c-0.21191-2.83105-0.31738-5.43652-0.31738-7.81641v-8.24415h7.16602v38.25391h-7.70996l-4.17285-16.46289
		c-0.49902-1.87598-0.92969-3.76953-1.29297-5.67969c-0.3623-1.91016-0.66504-3.8623-0.90625-5.85645h-0.36328
		c0.24219,2.12793,0.42676,4.35645,0.55566,6.68555c0.12793,2.3291,0.19238,4.78418,0.19238,7.36426v13.94922H277.90918z"/>
</g>
<g>
	<path d="M145.4707,180.13191v-11.82324h1.17676v5.10547h6.1582v-5.10547h1.17773v11.82324h-1.17773v-5.47852h-6.1582v5.47852
		H145.4707z"/>
	<path d="M181.21875,172.2159c0-1.50879,0.28223-2.56152,0.84668-3.15625c0.56445-0.5957,1.56641-0.89355,3.00684-0.89355h1.34961
		c1.4541,0,2.46094,0.29395,3.01855,0.88086c0.55664,0.58789,0.83594,1.64453,0.83594,3.16895v4.00977
		c0,1.51367-0.28418,2.56738-0.85059,3.16016c-0.56738,0.59277-1.56836,0.88867-3.00391,0.88867h-1.34961
		c-1.44043,0-2.44238-0.2959-3.00684-0.88867s-0.84668-1.64648-0.84668-3.16016V172.2159z M186.07031,169.39656h-0.66016
		c-0.75195,0-1.28224,0.04492-1.59375,0.13477c-0.31055,0.09082-0.5791,0.24121-0.80371,0.45313
		c-0.21094,0.20117-0.35938,0.47266-0.44531,0.81348c-0.08594,0.3418-0.12891,0.92773-0.12891,1.75879v3.35059
		c0,0.82617,0.04297,1.40723,0.12891,1.74316s0.23438,0.60449,0.44531,0.80566c0.22461,0.21191,0.49316,0.36328,0.80371,0.45313
		c0.31151,0.08984,0.8418,0.13477,1.59375,0.13477h0.66016c0.75098,0,1.28418-0.04492,1.60059-0.13477
		c0.31543-0.08984,0.58594-0.24121,0.81055-0.45313c0.20605-0.19531,0.35059-0.45703,0.43457-0.78613
		c0.08398-0.32813,0.12598-0.91504,0.12598-1.7627v-3.36621c0-0.83105-0.04297-1.41699-0.12988-1.75879
		c-0.08594-0.3418-0.23438-0.6123-0.44434-0.81348c-0.2207-0.20703-0.48633-0.35352-0.79688-0.44141
		C187.35938,169.44051,186.82617,169.39656,186.07031,169.39656z"/>
	<path d="M211.72957,180.13191v-11.82324h1.94531l7.03365,10.53711l6.9985-10.53711h1.95898v11.82324h-1.17676v-10.71973
		l-7.06296,10.71973h-1.45703l-7.06294-10.71973v10.71973H211.72957z"/>
	<path d="M256.25977,180.13191v-11.82324h7.49316v1.25488h-6.31641v3.86719h6.13672v1.20703h-6.13672v4.25586h6.31641v1.23828
		H256.25977z"/>
	<path d="M290.34961,176.28133h1.19141v0.22168c0,0.7041,0.04785,1.22266,0.14355,1.55664
		c0.0957,0.33301,0.25293,0.56934,0.47363,0.70703c0.17188,0.10547,0.4375,0.18066,0.79688,0.22559
		c0.3584,0.04492,1.09766,0.06738,2.21777,0.06738c0.60742,0,1.07813-0.04297,1.41309-0.13086
		c0.33496-0.08691,0.58398-0.22852,0.74707-0.4248c0.09082-0.10547,0.1582-0.28613,0.20117-0.54004s0.06445-0.59766,0.06445-1.03223
		c0-0.87793-0.08008-1.42969-0.24023-1.65527c-0.16113-0.22461-0.47754-0.3584-0.95117-0.40137l-3.29492-0.28516
		c-0.98535-0.08496-1.66699-0.35742-2.04492-0.81836c-0.37891-0.45996-0.56738-1.23535-0.56738-2.32617
		c0-0.68848,0.0625-1.24121,0.18652-1.65918s0.3252-0.76563,0.60254-1.04004c0.21582-0.21191,0.51758-0.36133,0.9043-0.44922
		c0.3877-0.08691,1.07227-0.13086,2.05273-0.13086h0.38086c1.0957,0,1.86719,0.05859,2.31445,0.1748
		s0.82227,0.31738,1.12305,0.60352c0.20605,0.19043,0.3584,0.46191,0.45605,0.81348
		c0.09863,0.35254,0.14746,0.79004,0.14746,1.31445c0,0.15332-0.00098,0.27148-0.00391,0.35352
		c-0.00195,0.08203-0.00586,0.1543-0.01074,0.21777h-1.19141v-0.29395c0-0.43359-0.02246-0.76563-0.06836-0.99609
		c-0.04492-0.23047-0.11816-0.40137-0.21875-0.51172c-0.14844-0.16406-0.41211-0.2793-0.79297-0.3457
		s-1.10156-0.09961-2.16406-0.09961c-1.10059,0-1.79199,0.1377-2.07422,0.41309s-0.42383,0.82617-0.42383,1.65137
		c0,0.67773,0.09277,1.14453,0.27637,1.40137c0.18457,0.25684,0.54004,0.40918,1.06641,0.45703l3.3584,0.30957
		c0.88086,0.08496,1.49805,0.35352,1.85254,0.80566c0.35352,0.45313,0.53125,1.20801,0.53125,2.26758
		c0,0.77246-0.0459,1.35352-0.13672,1.74219c-0.09082,0.38965-0.24219,0.71387-0.45215,0.97266
		c-0.25879,0.32324-0.60645,0.5498-1.04492,0.67871c-0.4375,0.12988-1.23535,0.19531-2.39355,0.19531h-0.53125
		c-0.98535,0-1.68262-0.05566-2.0918-0.16699s-0.75-0.30469-1.02246-0.58008c-0.26855-0.25391-0.46582-0.59766-0.59277-1.03223
		c-0.12695-0.43359-0.18945-0.98438-0.18945-1.65137V176.28133z"/>
</g>
</svg>
