<?xml version="1.0" encoding="utf-8"?>
<svg id="master-artboard" viewBox="0 0 1400 980" version="1.1" xmlns="http://www.w3.org/2000/svg" x="0px" y="0px" style="enable-background:new 0 0 1400 980;" width="1400px" height="980px"><g transform="matrix(1, 0, 0, 1, 0.000014927075426385272, -2.842170943040401e-14)"><g transform="matrix(4.682099343151529, 0, 0, 4.682099343151529, 0.000014927075426385272, 56.972110016760524)"><metadata>
	<sfw>
		<slices/>
		<slicesourcebounds bottomleftorigin="true" height="177.98584" width="299.26349" x="42.80724" y="-173.06967">
			</slicesourcebounds>
	</sfw>
</metadata><path d="M113.61375,18.40394c-0.32616,0.10872-9.67612,3.15289-17.17783,10.00228&#10;&#9;c-7.50172,6.84939-7.61044,12.61158-7.61044,12.61158s17.60049-1.67142,34.00021-12.05791s38.37532-24.6164,65.6528-13.04413&#10;&#9;c5.70845,2.42177,17.6138,29.99386,19.42711,45.30626c0,0,1.81584-18.34339-3.00098-32.79383S193.66539,8.57707,192.35172,8.13918&#10;&#9;s-18.86623-8.05227-34.73946-4.52489c-15.76411,3.50314-26.1626,10.32658-32.55486,15.52706&#10;&#9;c-6.39227,5.20049-17.33497,8.99251-17.33497,8.99251L113.61375,18.40394z" style="fill: rgb(255, 253, 208);"/><path d="M116.71466,12.69495c0,0-22.26521,0.97512-41.60505,21.29008c0,0-3.1284,55.69672-3.84719,64.32216&#10;&#9;c-0.71878,8.62544-1.19798,22.04279-0.71878,23.24078c0.47919,1.19798-1.91677,5.5107,29.70985,6.46908l-6.72079,6.94827&#10;&#9;c0,0-16.90582-1.2933-23.64755-3.84424s-7.83499-3.73528-7.74389-5.46627c0.0911-1.73099,4.48246-51.56512,4.48246-66.06448&#10;&#9;s0.96662-26.23693,1.2428-27.06547C68.1427,31.69632,80.589,17.3245,91.28196,14.35423S112.89021,11.77824,116.71466,12.69495z" style="fill: rgb(255, 253, 208);"/><path d="M58.05925,81.17613c0,0-26.57833,13.28916-47.57136,38.51932s-6.93348,45.45279,5.97049,54.50484&#10;&#9;c12.90397,9.05203,32.35623,8.66684,52.77146-1.54077c20.41525-10.20763,32.12479-26.6947,41.84499-37.6942&#10;&#9;s37.02932-41.54869,76.83584-51.50032s64.79956-6.51295,111.10049,19.61635c0,0-27.55728-33.37833-73.21602-35.34214&#10;&#9;c-45.65874-1.96382-87.15863,30.58515-118.73995,61.8845s-50.91232,53.40883-79.69477,42.058&#10;&#9;c-13.6741-5.39261-18.10373-23.30374-9.82224-41.79265S55.79728,83.54225,58.05925,81.17613z" style="fill: rgb(255, 253, 208);"/><g>
	
	
	
	
	
	
	
</g></g></g></svg>